<svg id="Layer_1" data-name="Layer 1" xmlns="http://www.w3.org/2000/svg" viewBox="0 0 291.44 156.36"><defs><style>.cls-1,.cls-2{fill:#ffffff;}.cls-1{fill-rule:evenodd;}</style></defs><title>Manafa-logo</title><polygon class="cls-1" points="2.77 0 0 78.18 2.77 156.36 5.55 78.18 2.77 0"/><polygon class="cls-2" points="129.1 52.24 132.13 52.24 142.69 34.57 140.12 33.03 128.88 51.83 128.63 52.24 128.63 52.24 128.57 52.35 129.1 52.24"/><path class="cls-2" d="M288.49,98.45h0c-2-1.88-4.76-2.83-8.33-2.83a43.22,43.22,0,0,0-5.09.48l-2.7.37V114.1H241.65V95.62h-3V114.1H167.78V86.3h-3.05v30.87H291.44v-8.95C291.44,103.62,290.45,100.33,288.49,98.45Zm-.1,15.66h-13V98.77a24.66,24.66,0,0,1,4.21-.43,9,9,0,0,1,6.53,2.23c1.51,1.48,2.27,4.06,2.27,7.67Z"/><rect class="cls-2" x="246.4" y="32.92" width="3" height="4.13"/><rect class="cls-2" x="250.34" y="38.17" width="3" height="4.13"/><rect class="cls-2" x="242.6" y="38.17" width="3" height="4.13"/><rect class="cls-2" x="189.89" y="73.51" width="3" height="4.13"/><rect class="cls-2" x="65.5" y="38.17" width="3" height="4.13"/><rect class="cls-2" x="57.76" y="38.17" width="3" height="4.13"/><rect class="cls-2" x="200" y="87.66" width="3" height="4.13"/><rect class="cls-2" x="146.43" y="87.66" width="3" height="4.13"/><path class="cls-2" d="M219.06,69.22v0h30v-.61l.3.12a7.43,7.43,0,0,0,2.63.49h8.67V47.59h-3V66.18h-5.33a5.71,5.71,0,0,1-2.4-.55,9.31,9.31,0,0,1-.87-.46V47.59h-3V66.18h-6.09V47.59h-3V66.18h-16v0H204.7V47.52h-3V66.17H153.4V59.71c0-3.33-.65-5.89-1.93-7.59a6.77,6.77,0,0,0-5.74-2.6h-9.28l-1.5,2.72h10.82a3.64,3.64,0,0,1,3.63,2.19,12.87,12.87,0,0,1,1,5.23v6.51H70.7V45.42l-1.42-.19L68,45.06a35.89,35.89,0,0,0-3.8-.32c-3.57,0-6.37,1-8.33,2.83s-3,5.17-3,9.78V69.24h73.57ZM67.7,66.17,56,66.19V57.36c0-3.61.76-6.19,2.27-7.66a9,9,0,0,1,6.53-2.23,20.49,20.49,0,0,1,2.93.23Z"/><path class="cls-2" d="M153.06,97.23v16.88H140v-4.8c0-3.61.76-6.19,2.27-7.67a9,9,0,0,1,6.53-2.23c.27,0,.74,0,1.4.09l.29,0V96.84l-.24,0c-.86-.08-1.54-.12-2-.12-3.57,0-6.37,1-8.33,2.83s-3,5.17-3,9.78v4.8H75.89a16.53,16.53,0,0,1-6.35-1,20,20,0,0,0,4.36-4.42c.47-.66.92-1.36,1.38-2.16a21.06,21.06,0,0,0,1.55-3.22c0-.13.09-.25.13-.37l.14-.43-.22-.1c-.81-.37-1.59-.7-2.32-1a24.1,24.1,0,0,0-2.74-.87,22.05,22.05,0,0,0-10.59,0,23.41,23.41,0,0,0-2.65.84c-.73.28-1.5.6-2.29,1l-.22.1.12.36.06.18a21,21,0,0,0,1.63,3.48c.36.63.69,1.16,1,1.66a19.8,19.8,0,0,0,4,4.31,10.48,10.48,0,0,0-2.19.92,7.41,7.41,0,0,0-2,1.63l-.06.07-.13.15a9.71,9.71,0,0,0-1.62,6.12A16.73,16.73,0,0,0,57.6,126h3.26l-.23-.49-.11-.24a9.49,9.49,0,0,1-.63-3.23v-.17c0-.1,0-.19,0-.29a8.09,8.09,0,0,1,.9-4.08,4.44,4.44,0,0,1,.73-.95,5.07,5.07,0,0,1,1-.73,8.39,8.39,0,0,1,3.86-1,16.57,16.57,0,0,0,3.94,1.59l.2.06.38.1a23.08,23.08,0,0,0,2.29.43,20.09,20.09,0,0,0,2.71.19h80.22V97.93ZM66.58,111.51a21.15,21.15,0,0,1-5.95-6.14h0a14.45,14.45,0,0,1-.76-1.35c1-.34,1.92-.61,2.76-.82a16.15,16.15,0,0,1,3.95-.51A21.78,21.78,0,0,1,73.27,104a15.29,15.29,0,0,1-.79,1.41A20.19,20.19,0,0,1,66.58,111.51Z"/></svg>
